<mxfile host="app.diagrams.net" agent="Mozilla/5.0 (Windows NT 10.0; Win64; x64) AppleWebKit/537.36 (KHTML, like Gecko) Chrome/140.0.0.0 Safari/537.36 Edg/140.0.0.0" version="28.2.3">
  <diagram name="第 1 页" id="XWmFZcs1bydsPs41KzF8">
    <mxGraphModel dx="2600" dy="2162" grid="1" gridSize="10" guides="1" tooltips="1" connect="1" arrows="1" fold="1" page="1" pageScale="1" pageWidth="827" pageHeight="1169" math="0" shadow="0">
      <root>
        <mxCell id="0" />
        <mxCell id="1" parent="0" />
        <mxCell id="QxQH1etCJ_Zwl-zsI5nc-136" value="" style="rounded=0;whiteSpace=wrap;html=1;fillColor=none;dashed=1;strokeWidth=2;" parent="1" vertex="1">
          <mxGeometry x="-50" y="100" width="900" height="620" as="geometry" />
        </mxCell>
        <mxCell id="QxQH1etCJ_Zwl-zsI5nc-1" value="" style="shape=table;startSize=0;container=1;collapsible=0;childLayout=tableLayout;fontSize=16;fillColor=#f8cecc;strokeColor=#b85450;shadow=0;rounded=0;" parent="1" vertex="1">
          <mxGeometry x="280" y="400" width="240" height="120" as="geometry" />
        </mxCell>
        <mxCell id="QxQH1etCJ_Zwl-zsI5nc-2" value="" style="shape=tableRow;horizontal=0;startSize=0;swimlaneHead=0;swimlaneBody=0;strokeColor=#b85450;top=0;left=0;bottom=0;right=0;collapsible=0;dropTarget=0;fillColor=#f8cecc;points=[[0,0.5],[1,0.5]];portConstraint=eastwest;fontSize=16;shadow=0;sketch=1;curveFitting=1;jiggle=2;" parent="QxQH1etCJ_Zwl-zsI5nc-1" vertex="1">
          <mxGeometry width="240" height="40" as="geometry" />
        </mxCell>
        <mxCell id="QxQH1etCJ_Zwl-zsI5nc-3" value="" style="shape=partialRectangle;html=1;whiteSpace=wrap;connectable=0;strokeColor=#b85450;overflow=hidden;fillColor=#f8cecc;top=0;left=0;bottom=0;right=0;pointerEvents=1;fontSize=16;shadow=0;sketch=1;curveFitting=1;jiggle=2;" parent="QxQH1etCJ_Zwl-zsI5nc-2" vertex="1">
          <mxGeometry width="60" height="40" as="geometry">
            <mxRectangle width="60" height="40" as="alternateBounds" />
          </mxGeometry>
        </mxCell>
        <mxCell id="QxQH1etCJ_Zwl-zsI5nc-4" value="" style="shape=partialRectangle;html=1;whiteSpace=wrap;connectable=0;strokeColor=#b85450;overflow=hidden;fillColor=#f8cecc;top=0;left=0;bottom=0;right=0;pointerEvents=1;fontSize=16;shadow=0;sketch=1;curveFitting=1;jiggle=2;" parent="QxQH1etCJ_Zwl-zsI5nc-2" vertex="1">
          <mxGeometry x="60" width="60" height="40" as="geometry">
            <mxRectangle width="60" height="40" as="alternateBounds" />
          </mxGeometry>
        </mxCell>
        <mxCell id="QxQH1etCJ_Zwl-zsI5nc-5" value="" style="shape=partialRectangle;html=1;whiteSpace=wrap;connectable=0;strokeColor=#b85450;overflow=hidden;fillColor=#f8cecc;top=0;left=0;bottom=0;right=0;pointerEvents=1;fontSize=16;shadow=0;sketch=1;curveFitting=1;jiggle=2;" parent="QxQH1etCJ_Zwl-zsI5nc-2" vertex="1">
          <mxGeometry x="120" width="60" height="40" as="geometry">
            <mxRectangle width="60" height="40" as="alternateBounds" />
          </mxGeometry>
        </mxCell>
        <mxCell id="QxQH1etCJ_Zwl-zsI5nc-14" style="shape=partialRectangle;html=1;whiteSpace=wrap;connectable=0;strokeColor=#b85450;overflow=hidden;fillColor=#f8cecc;top=0;left=0;bottom=0;right=0;pointerEvents=1;fontSize=16;shadow=0;sketch=1;curveFitting=1;jiggle=2;" parent="QxQH1etCJ_Zwl-zsI5nc-2" vertex="1">
          <mxGeometry x="180" width="60" height="40" as="geometry">
            <mxRectangle width="60" height="40" as="alternateBounds" />
          </mxGeometry>
        </mxCell>
        <mxCell id="QxQH1etCJ_Zwl-zsI5nc-6" value="" style="shape=tableRow;horizontal=0;startSize=0;swimlaneHead=0;swimlaneBody=0;strokeColor=#b85450;top=0;left=0;bottom=0;right=0;collapsible=0;dropTarget=0;fillColor=#f8cecc;points=[[0,0.5],[1,0.5]];portConstraint=eastwest;fontSize=16;shadow=0;sketch=1;curveFitting=1;jiggle=2;" parent="QxQH1etCJ_Zwl-zsI5nc-1" vertex="1">
          <mxGeometry y="40" width="240" height="40" as="geometry" />
        </mxCell>
        <mxCell id="QxQH1etCJ_Zwl-zsI5nc-7" value="" style="shape=partialRectangle;html=1;whiteSpace=wrap;connectable=0;strokeColor=#b85450;overflow=hidden;fillColor=#f8cecc;top=0;left=0;bottom=0;right=0;pointerEvents=1;fontSize=16;shadow=0;sketch=1;curveFitting=1;jiggle=2;" parent="QxQH1etCJ_Zwl-zsI5nc-6" vertex="1">
          <mxGeometry width="60" height="40" as="geometry">
            <mxRectangle width="60" height="40" as="alternateBounds" />
          </mxGeometry>
        </mxCell>
        <mxCell id="QxQH1etCJ_Zwl-zsI5nc-8" value="" style="shape=partialRectangle;html=1;whiteSpace=wrap;connectable=0;strokeColor=#b85450;overflow=hidden;fillColor=#f8cecc;top=0;left=0;bottom=0;right=0;pointerEvents=1;fontSize=16;shadow=0;sketch=1;curveFitting=1;jiggle=2;" parent="QxQH1etCJ_Zwl-zsI5nc-6" vertex="1">
          <mxGeometry x="60" width="60" height="40" as="geometry">
            <mxRectangle width="60" height="40" as="alternateBounds" />
          </mxGeometry>
        </mxCell>
        <mxCell id="QxQH1etCJ_Zwl-zsI5nc-9" value="" style="shape=partialRectangle;html=1;whiteSpace=wrap;connectable=0;strokeColor=#b85450;overflow=hidden;fillColor=#f8cecc;top=0;left=0;bottom=0;right=0;pointerEvents=1;fontSize=16;shadow=0;sketch=1;curveFitting=1;jiggle=2;" parent="QxQH1etCJ_Zwl-zsI5nc-6" vertex="1">
          <mxGeometry x="120" width="60" height="40" as="geometry">
            <mxRectangle width="60" height="40" as="alternateBounds" />
          </mxGeometry>
        </mxCell>
        <mxCell id="QxQH1etCJ_Zwl-zsI5nc-15" style="shape=partialRectangle;html=1;whiteSpace=wrap;connectable=0;strokeColor=#b85450;overflow=hidden;fillColor=#f8cecc;top=0;left=0;bottom=0;right=0;pointerEvents=1;fontSize=16;shadow=0;sketch=1;curveFitting=1;jiggle=2;" parent="QxQH1etCJ_Zwl-zsI5nc-6" vertex="1">
          <mxGeometry x="180" width="60" height="40" as="geometry">
            <mxRectangle width="60" height="40" as="alternateBounds" />
          </mxGeometry>
        </mxCell>
        <mxCell id="QxQH1etCJ_Zwl-zsI5nc-10" value="" style="shape=tableRow;horizontal=0;startSize=0;swimlaneHead=0;swimlaneBody=0;strokeColor=#b85450;top=0;left=0;bottom=0;right=0;collapsible=0;dropTarget=0;fillColor=#f8cecc;points=[[0,0.5],[1,0.5]];portConstraint=eastwest;fontSize=16;shadow=0;sketch=1;curveFitting=1;jiggle=2;" parent="QxQH1etCJ_Zwl-zsI5nc-1" vertex="1">
          <mxGeometry y="80" width="240" height="40" as="geometry" />
        </mxCell>
        <mxCell id="QxQH1etCJ_Zwl-zsI5nc-11" value="" style="shape=partialRectangle;html=1;whiteSpace=wrap;connectable=0;strokeColor=#b85450;overflow=hidden;fillColor=#f8cecc;top=0;left=0;bottom=0;right=0;pointerEvents=1;fontSize=16;shadow=0;sketch=1;curveFitting=1;jiggle=2;" parent="QxQH1etCJ_Zwl-zsI5nc-10" vertex="1">
          <mxGeometry width="60" height="40" as="geometry">
            <mxRectangle width="60" height="40" as="alternateBounds" />
          </mxGeometry>
        </mxCell>
        <mxCell id="QxQH1etCJ_Zwl-zsI5nc-12" value="" style="shape=partialRectangle;html=1;whiteSpace=wrap;connectable=0;strokeColor=#b85450;overflow=hidden;fillColor=#f8cecc;top=0;left=0;bottom=0;right=0;pointerEvents=1;fontSize=16;shadow=0;sketch=1;curveFitting=1;jiggle=2;" parent="QxQH1etCJ_Zwl-zsI5nc-10" vertex="1">
          <mxGeometry x="60" width="60" height="40" as="geometry">
            <mxRectangle width="60" height="40" as="alternateBounds" />
          </mxGeometry>
        </mxCell>
        <mxCell id="QxQH1etCJ_Zwl-zsI5nc-13" value="" style="shape=partialRectangle;html=1;whiteSpace=wrap;connectable=0;strokeColor=#b85450;overflow=hidden;fillColor=#f8cecc;top=0;left=0;bottom=0;right=0;pointerEvents=1;fontSize=16;shadow=0;sketch=1;curveFitting=1;jiggle=2;" parent="QxQH1etCJ_Zwl-zsI5nc-10" vertex="1">
          <mxGeometry x="120" width="60" height="40" as="geometry">
            <mxRectangle width="60" height="40" as="alternateBounds" />
          </mxGeometry>
        </mxCell>
        <mxCell id="QxQH1etCJ_Zwl-zsI5nc-16" style="shape=partialRectangle;html=1;whiteSpace=wrap;connectable=0;strokeColor=#b85450;overflow=hidden;fillColor=#f8cecc;top=0;left=0;bottom=0;right=0;pointerEvents=1;fontSize=16;shadow=0;sketch=1;curveFitting=1;jiggle=2;" parent="QxQH1etCJ_Zwl-zsI5nc-10" vertex="1">
          <mxGeometry x="180" width="60" height="40" as="geometry">
            <mxRectangle width="60" height="40" as="alternateBounds" />
          </mxGeometry>
        </mxCell>
        <mxCell id="QxQH1etCJ_Zwl-zsI5nc-17" value="" style="shape=table;startSize=0;container=1;collapsible=0;childLayout=tableLayout;fontSize=16;fillColor=#e1d5e7;strokeColor=#9673a6;shadow=0;rounded=0;" parent="1" vertex="1">
          <mxGeometry x="180" y="140" width="120" height="160" as="geometry" />
        </mxCell>
        <mxCell id="QxQH1etCJ_Zwl-zsI5nc-18" value="" style="shape=tableRow;horizontal=0;startSize=0;swimlaneHead=0;swimlaneBody=0;strokeColor=#b85450;top=0;left=0;bottom=0;right=0;collapsible=0;dropTarget=0;fillColor=#f8cecc;points=[[0,0.5],[1,0.5]];portConstraint=eastwest;fontSize=16;shadow=0;sketch=1;curveFitting=1;jiggle=2;" parent="QxQH1etCJ_Zwl-zsI5nc-17" vertex="1">
          <mxGeometry width="120" height="40" as="geometry" />
        </mxCell>
        <mxCell id="QxQH1etCJ_Zwl-zsI5nc-19" value="" style="shape=partialRectangle;html=1;whiteSpace=wrap;connectable=0;strokeColor=#b85450;overflow=hidden;fillColor=#f8cecc;top=0;left=0;bottom=0;right=0;pointerEvents=1;fontSize=16;shadow=0;sketch=1;curveFitting=1;jiggle=2;" parent="QxQH1etCJ_Zwl-zsI5nc-18" vertex="1">
          <mxGeometry width="60" height="40" as="geometry">
            <mxRectangle width="60" height="40" as="alternateBounds" />
          </mxGeometry>
        </mxCell>
        <mxCell id="QxQH1etCJ_Zwl-zsI5nc-65" style="shape=partialRectangle;html=1;whiteSpace=wrap;connectable=0;strokeColor=#b85450;overflow=hidden;fillColor=#f8cecc;top=0;left=0;bottom=0;right=0;pointerEvents=1;fontSize=16;shadow=0;sketch=1;curveFitting=1;jiggle=2;" parent="QxQH1etCJ_Zwl-zsI5nc-18" vertex="1">
          <mxGeometry x="60" width="60" height="40" as="geometry">
            <mxRectangle width="60" height="40" as="alternateBounds" />
          </mxGeometry>
        </mxCell>
        <mxCell id="QxQH1etCJ_Zwl-zsI5nc-23" value="" style="shape=tableRow;horizontal=0;startSize=0;swimlaneHead=0;swimlaneBody=0;strokeColor=#b85450;top=0;left=0;bottom=0;right=0;collapsible=0;dropTarget=0;fillColor=#f8cecc;points=[[0,0.5],[1,0.5]];portConstraint=eastwest;fontSize=16;shadow=0;sketch=1;curveFitting=1;jiggle=2;" parent="QxQH1etCJ_Zwl-zsI5nc-17" vertex="1">
          <mxGeometry y="40" width="120" height="40" as="geometry" />
        </mxCell>
        <mxCell id="QxQH1etCJ_Zwl-zsI5nc-24" value="" style="shape=partialRectangle;html=1;whiteSpace=wrap;connectable=0;strokeColor=#b85450;overflow=hidden;fillColor=#f8cecc;top=0;left=0;bottom=0;right=0;pointerEvents=1;fontSize=16;shadow=0;sketch=1;curveFitting=1;jiggle=2;" parent="QxQH1etCJ_Zwl-zsI5nc-23" vertex="1">
          <mxGeometry width="60" height="40" as="geometry">
            <mxRectangle width="60" height="40" as="alternateBounds" />
          </mxGeometry>
        </mxCell>
        <mxCell id="QxQH1etCJ_Zwl-zsI5nc-66" style="shape=partialRectangle;html=1;whiteSpace=wrap;connectable=0;strokeColor=#b85450;overflow=hidden;fillColor=#f8cecc;top=0;left=0;bottom=0;right=0;pointerEvents=1;fontSize=16;shadow=0;sketch=1;curveFitting=1;jiggle=2;" parent="QxQH1etCJ_Zwl-zsI5nc-23" vertex="1">
          <mxGeometry x="60" width="60" height="40" as="geometry">
            <mxRectangle width="60" height="40" as="alternateBounds" />
          </mxGeometry>
        </mxCell>
        <mxCell id="QxQH1etCJ_Zwl-zsI5nc-28" value="" style="shape=tableRow;horizontal=0;startSize=0;swimlaneHead=0;swimlaneBody=0;strokeColor=#b85450;top=0;left=0;bottom=0;right=0;collapsible=0;dropTarget=0;fillColor=#f8cecc;points=[[0,0.5],[1,0.5]];portConstraint=eastwest;fontSize=16;shadow=0;sketch=1;curveFitting=1;jiggle=2;" parent="QxQH1etCJ_Zwl-zsI5nc-17" vertex="1">
          <mxGeometry y="80" width="120" height="40" as="geometry" />
        </mxCell>
        <mxCell id="QxQH1etCJ_Zwl-zsI5nc-29" value="" style="shape=partialRectangle;html=1;whiteSpace=wrap;connectable=0;strokeColor=#b85450;overflow=hidden;fillColor=#f8cecc;top=0;left=0;bottom=0;right=0;pointerEvents=1;fontSize=16;shadow=0;sketch=1;curveFitting=1;jiggle=2;" parent="QxQH1etCJ_Zwl-zsI5nc-28" vertex="1">
          <mxGeometry width="60" height="40" as="geometry">
            <mxRectangle width="60" height="40" as="alternateBounds" />
          </mxGeometry>
        </mxCell>
        <mxCell id="QxQH1etCJ_Zwl-zsI5nc-67" style="shape=partialRectangle;html=1;whiteSpace=wrap;connectable=0;strokeColor=#b85450;overflow=hidden;fillColor=#f8cecc;top=0;left=0;bottom=0;right=0;pointerEvents=1;fontSize=16;shadow=0;sketch=1;curveFitting=1;jiggle=2;" parent="QxQH1etCJ_Zwl-zsI5nc-28" vertex="1">
          <mxGeometry x="60" width="60" height="40" as="geometry">
            <mxRectangle width="60" height="40" as="alternateBounds" />
          </mxGeometry>
        </mxCell>
        <mxCell id="QxQH1etCJ_Zwl-zsI5nc-71" style="shape=tableRow;horizontal=0;startSize=0;swimlaneHead=0;swimlaneBody=0;strokeColor=#b85450;top=0;left=0;bottom=0;right=0;collapsible=0;dropTarget=0;fillColor=#f8cecc;points=[[0,0.5],[1,0.5]];portConstraint=eastwest;fontSize=16;shadow=0;sketch=1;curveFitting=1;jiggle=2;" parent="QxQH1etCJ_Zwl-zsI5nc-17" vertex="1">
          <mxGeometry y="120" width="120" height="40" as="geometry" />
        </mxCell>
        <mxCell id="QxQH1etCJ_Zwl-zsI5nc-72" style="shape=partialRectangle;html=1;whiteSpace=wrap;connectable=0;strokeColor=#b85450;overflow=hidden;fillColor=#f8cecc;top=0;left=0;bottom=0;right=0;pointerEvents=1;fontSize=16;shadow=0;sketch=1;curveFitting=1;jiggle=2;" parent="QxQH1etCJ_Zwl-zsI5nc-71" vertex="1">
          <mxGeometry width="60" height="40" as="geometry">
            <mxRectangle width="60" height="40" as="alternateBounds" />
          </mxGeometry>
        </mxCell>
        <mxCell id="QxQH1etCJ_Zwl-zsI5nc-73" style="shape=partialRectangle;html=1;whiteSpace=wrap;connectable=0;strokeColor=#b85450;overflow=hidden;fillColor=#f8cecc;top=0;left=0;bottom=0;right=0;pointerEvents=1;fontSize=16;shadow=0;sketch=1;curveFitting=1;jiggle=2;" parent="QxQH1etCJ_Zwl-zsI5nc-71" vertex="1">
          <mxGeometry x="60" width="60" height="40" as="geometry">
            <mxRectangle width="60" height="40" as="alternateBounds" />
          </mxGeometry>
        </mxCell>
        <mxCell id="QxQH1etCJ_Zwl-zsI5nc-40" value="" style="shape=table;startSize=0;container=1;collapsible=0;childLayout=tableLayout;fontSize=16;fillColor=#e1d5e7;strokeColor=#9673a6;shadow=0;rounded=0;" parent="1" vertex="1">
          <mxGeometry x="575" y="140" width="120" height="160" as="geometry" />
        </mxCell>
        <mxCell id="QxQH1etCJ_Zwl-zsI5nc-41" value="" style="shape=tableRow;horizontal=0;startSize=0;swimlaneHead=0;swimlaneBody=0;strokeColor=#b85450;top=0;left=0;bottom=0;right=0;collapsible=0;dropTarget=0;fillColor=#f8cecc;points=[[0,0.5],[1,0.5]];portConstraint=eastwest;fontSize=16;shadow=0;sketch=1;curveFitting=1;jiggle=2;" parent="QxQH1etCJ_Zwl-zsI5nc-40" vertex="1">
          <mxGeometry width="120" height="40" as="geometry" />
        </mxCell>
        <mxCell id="QxQH1etCJ_Zwl-zsI5nc-42" value="" style="shape=partialRectangle;html=1;whiteSpace=wrap;connectable=0;strokeColor=#b85450;overflow=hidden;fillColor=#f8cecc;top=0;left=0;bottom=0;right=0;pointerEvents=1;fontSize=16;shadow=0;sketch=1;curveFitting=1;jiggle=2;" parent="QxQH1etCJ_Zwl-zsI5nc-41" vertex="1">
          <mxGeometry width="60" height="40" as="geometry">
            <mxRectangle width="60" height="40" as="alternateBounds" />
          </mxGeometry>
        </mxCell>
        <mxCell id="QxQH1etCJ_Zwl-zsI5nc-68" style="shape=partialRectangle;html=1;whiteSpace=wrap;connectable=0;strokeColor=#b85450;overflow=hidden;fillColor=#f8cecc;top=0;left=0;bottom=0;right=0;pointerEvents=1;fontSize=16;shadow=0;sketch=1;curveFitting=1;jiggle=2;" parent="QxQH1etCJ_Zwl-zsI5nc-41" vertex="1">
          <mxGeometry x="60" width="60" height="40" as="geometry">
            <mxRectangle width="60" height="40" as="alternateBounds" />
          </mxGeometry>
        </mxCell>
        <mxCell id="QxQH1etCJ_Zwl-zsI5nc-43" value="" style="shape=tableRow;horizontal=0;startSize=0;swimlaneHead=0;swimlaneBody=0;strokeColor=#b85450;top=0;left=0;bottom=0;right=0;collapsible=0;dropTarget=0;fillColor=#f8cecc;points=[[0,0.5],[1,0.5]];portConstraint=eastwest;fontSize=16;shadow=0;sketch=1;curveFitting=1;jiggle=2;" parent="QxQH1etCJ_Zwl-zsI5nc-40" vertex="1">
          <mxGeometry y="40" width="120" height="40" as="geometry" />
        </mxCell>
        <mxCell id="QxQH1etCJ_Zwl-zsI5nc-44" value="" style="shape=partialRectangle;html=1;whiteSpace=wrap;connectable=0;strokeColor=#b85450;overflow=hidden;fillColor=#f8cecc;top=0;left=0;bottom=0;right=0;pointerEvents=1;fontSize=16;shadow=0;sketch=1;curveFitting=1;jiggle=2;" parent="QxQH1etCJ_Zwl-zsI5nc-43" vertex="1">
          <mxGeometry width="60" height="40" as="geometry">
            <mxRectangle width="60" height="40" as="alternateBounds" />
          </mxGeometry>
        </mxCell>
        <mxCell id="QxQH1etCJ_Zwl-zsI5nc-69" style="shape=partialRectangle;html=1;whiteSpace=wrap;connectable=0;strokeColor=#b85450;overflow=hidden;fillColor=#f8cecc;top=0;left=0;bottom=0;right=0;pointerEvents=1;fontSize=16;shadow=0;sketch=1;curveFitting=1;jiggle=2;" parent="QxQH1etCJ_Zwl-zsI5nc-43" vertex="1">
          <mxGeometry x="60" width="60" height="40" as="geometry">
            <mxRectangle width="60" height="40" as="alternateBounds" />
          </mxGeometry>
        </mxCell>
        <mxCell id="QxQH1etCJ_Zwl-zsI5nc-45" value="" style="shape=tableRow;horizontal=0;startSize=0;swimlaneHead=0;swimlaneBody=0;strokeColor=#b85450;top=0;left=0;bottom=0;right=0;collapsible=0;dropTarget=0;fillColor=#f8cecc;points=[[0,0.5],[1,0.5]];portConstraint=eastwest;fontSize=16;shadow=0;sketch=1;curveFitting=1;jiggle=2;" parent="QxQH1etCJ_Zwl-zsI5nc-40" vertex="1">
          <mxGeometry y="80" width="120" height="40" as="geometry" />
        </mxCell>
        <mxCell id="QxQH1etCJ_Zwl-zsI5nc-46" value="" style="shape=partialRectangle;html=1;whiteSpace=wrap;connectable=0;strokeColor=#b85450;overflow=hidden;fillColor=#f8cecc;top=0;left=0;bottom=0;right=0;pointerEvents=1;fontSize=16;shadow=0;sketch=1;curveFitting=1;jiggle=2;" parent="QxQH1etCJ_Zwl-zsI5nc-45" vertex="1">
          <mxGeometry width="60" height="40" as="geometry">
            <mxRectangle width="60" height="40" as="alternateBounds" />
          </mxGeometry>
        </mxCell>
        <mxCell id="QxQH1etCJ_Zwl-zsI5nc-70" style="shape=partialRectangle;html=1;whiteSpace=wrap;connectable=0;strokeColor=#b85450;overflow=hidden;fillColor=#f8cecc;top=0;left=0;bottom=0;right=0;pointerEvents=1;fontSize=16;shadow=0;sketch=1;curveFitting=1;jiggle=2;" parent="QxQH1etCJ_Zwl-zsI5nc-45" vertex="1">
          <mxGeometry x="60" width="60" height="40" as="geometry">
            <mxRectangle width="60" height="40" as="alternateBounds" />
          </mxGeometry>
        </mxCell>
        <mxCell id="QxQH1etCJ_Zwl-zsI5nc-74" style="shape=tableRow;horizontal=0;startSize=0;swimlaneHead=0;swimlaneBody=0;strokeColor=#b85450;top=0;left=0;bottom=0;right=0;collapsible=0;dropTarget=0;fillColor=#f8cecc;points=[[0,0.5],[1,0.5]];portConstraint=eastwest;fontSize=16;shadow=0;sketch=1;curveFitting=1;jiggle=2;" parent="QxQH1etCJ_Zwl-zsI5nc-40" vertex="1">
          <mxGeometry y="120" width="120" height="40" as="geometry" />
        </mxCell>
        <mxCell id="QxQH1etCJ_Zwl-zsI5nc-75" style="shape=partialRectangle;html=1;whiteSpace=wrap;connectable=0;strokeColor=#b85450;overflow=hidden;fillColor=#f8cecc;top=0;left=0;bottom=0;right=0;pointerEvents=1;fontSize=16;shadow=0;sketch=1;curveFitting=1;jiggle=2;" parent="QxQH1etCJ_Zwl-zsI5nc-74" vertex="1">
          <mxGeometry width="60" height="40" as="geometry">
            <mxRectangle width="60" height="40" as="alternateBounds" />
          </mxGeometry>
        </mxCell>
        <mxCell id="QxQH1etCJ_Zwl-zsI5nc-76" style="shape=partialRectangle;html=1;whiteSpace=wrap;connectable=0;strokeColor=#b85450;overflow=hidden;fillColor=#f8cecc;top=0;left=0;bottom=0;right=0;pointerEvents=1;fontSize=16;shadow=0;sketch=1;curveFitting=1;jiggle=2;" parent="QxQH1etCJ_Zwl-zsI5nc-74" vertex="1">
          <mxGeometry x="60" width="60" height="40" as="geometry">
            <mxRectangle width="60" height="40" as="alternateBounds" />
          </mxGeometry>
        </mxCell>
        <mxCell id="QxQH1etCJ_Zwl-zsI5nc-61" value="" style="shape=curlyBracket;whiteSpace=wrap;html=1;rounded=1;labelPosition=left;verticalLabelPosition=middle;align=right;verticalAlign=middle;" parent="1" vertex="1">
          <mxGeometry x="230" y="400" width="20" height="120" as="geometry" />
        </mxCell>
        <mxCell id="QxQH1etCJ_Zwl-zsI5nc-62" value="&lt;font&gt;&lt;b&gt;hidden_size&lt;/b&gt;&lt;/font&gt;" style="text;html=1;align=center;verticalAlign=middle;resizable=0;points=[];autosize=1;strokeColor=none;fillColor=none;strokeWidth=1;fontSize=28;" parent="1" vertex="1">
          <mxGeometry x="310" y="555" width="180" height="50" as="geometry" />
        </mxCell>
        <mxCell id="QxQH1etCJ_Zwl-zsI5nc-63" value="" style="shape=curlyBracket;whiteSpace=wrap;html=1;rounded=1;labelPosition=left;verticalLabelPosition=middle;align=right;verticalAlign=middle;rotation=-90;size=0.5;" parent="1" vertex="1">
          <mxGeometry x="390" y="430" width="20" height="240" as="geometry" />
        </mxCell>
        <mxCell id="QxQH1etCJ_Zwl-zsI5nc-64" value="&lt;font&gt;&lt;b&gt;sequence_lenth&lt;/b&gt;&lt;/font&gt;" style="text;html=1;align=center;verticalAlign=middle;resizable=0;points=[];autosize=1;strokeColor=none;fillColor=none;strokeWidth=1;fontSize=28;" parent="1" vertex="1">
          <mxGeometry x="-20" y="435" width="240" height="50" as="geometry" />
        </mxCell>
        <mxCell id="QxQH1etCJ_Zwl-zsI5nc-77" value="&lt;span&gt;&lt;b&gt;head_dim&lt;/b&gt;&lt;/span&gt;" style="text;html=1;align=center;verticalAlign=middle;resizable=0;points=[];autosize=1;strokeColor=none;fillColor=none;strokeWidth=1;fontSize=28;" parent="1" vertex="1">
          <mxGeometry x="170" y="325" width="150" height="50" as="geometry" />
        </mxCell>
        <mxCell id="QxQH1etCJ_Zwl-zsI5nc-78" value="" style="shape=curlyBracket;whiteSpace=wrap;html=1;rounded=1;labelPosition=left;verticalLabelPosition=middle;align=right;verticalAlign=middle;rotation=-90;size=0.5;" parent="1" vertex="1">
          <mxGeometry x="230" y="260" width="20" height="120" as="geometry" />
        </mxCell>
        <mxCell id="QxQH1etCJ_Zwl-zsI5nc-81" value="&lt;div&gt;&lt;font&gt;&lt;b&gt;multi_head_attention&lt;/b&gt;&lt;/font&gt;&lt;/div&gt;&lt;font&gt;&lt;b&gt;attention_head=2,&lt;/b&gt;&lt;/font&gt;&lt;b style=&quot;background-color: transparent; color: light-dark(rgb(0, 0, 0), rgb(255, 255, 255));&quot;&gt;k_v_nums=2,batch_size=1&lt;/b&gt;" style="text;html=1;align=center;verticalAlign=middle;resizable=0;points=[];autosize=1;strokeColor=none;fillColor=none;strokeWidth=1;fontSize=28;" parent="1" vertex="1">
          <mxGeometry x="109" y="620" width="610" height="80" as="geometry" />
        </mxCell>
        <mxCell id="QxQH1etCJ_Zwl-zsI5nc-82" value="" style="shape=curlyBracket;whiteSpace=wrap;html=1;rounded=1;labelPosition=left;verticalLabelPosition=middle;align=right;verticalAlign=middle;" parent="1" vertex="1">
          <mxGeometry x="120" y="140" width="20" height="160" as="geometry" />
        </mxCell>
        <mxCell id="QxQH1etCJ_Zwl-zsI5nc-84" value="&lt;font&gt;&lt;b&gt;hidden_size&lt;/b&gt;&lt;/font&gt;" style="text;html=1;align=center;verticalAlign=middle;resizable=0;points=[];autosize=1;strokeColor=none;fillColor=none;strokeWidth=1;fontSize=28;" parent="1" vertex="1">
          <mxGeometry x="-50" y="195" width="180" height="50" as="geometry" />
        </mxCell>
        <mxCell id="QxQH1etCJ_Zwl-zsI5nc-86" value="" style="shape=flexArrow;endArrow=classic;html=1;rounded=0;" parent="1" edge="1">
          <mxGeometry width="50" height="50" relative="1" as="geometry">
            <mxPoint x="413" y="110" as="sourcePoint" />
            <mxPoint x="413" y="40" as="targetPoint" />
          </mxGeometry>
        </mxCell>
        <mxCell id="QxQH1etCJ_Zwl-zsI5nc-87" value="" style="endArrow=classic;html=1;rounded=0;exitX=0.488;exitY=0;exitDx=0;exitDy=0;exitPerimeter=0;" parent="1" source="QxQH1etCJ_Zwl-zsI5nc-2" edge="1">
          <mxGeometry width="50" height="50" relative="1" as="geometry">
            <mxPoint x="330" y="320" as="sourcePoint" />
            <mxPoint x="310" y="350" as="targetPoint" />
          </mxGeometry>
        </mxCell>
        <mxCell id="QxQH1etCJ_Zwl-zsI5nc-88" value="" style="endArrow=classic;html=1;rounded=0;exitX=0.513;exitY=0;exitDx=0;exitDy=0;exitPerimeter=0;" parent="1" source="QxQH1etCJ_Zwl-zsI5nc-2" edge="1">
          <mxGeometry width="50" height="50" relative="1" as="geometry">
            <mxPoint x="547" y="410" as="sourcePoint" />
            <mxPoint x="490" y="350" as="targetPoint" />
          </mxGeometry>
        </mxCell>
        <mxCell id="QxQH1etCJ_Zwl-zsI5nc-89" value="" style="shape=cross;whiteSpace=wrap;html=1;rotation=45;strokeColor=none;fillColor=light-dark(#0a0a0a, #ededed);" parent="1" vertex="1">
          <mxGeometry x="380" y="340" width="40" height="40" as="geometry" />
        </mxCell>
        <mxCell id="QxQH1etCJ_Zwl-zsI5nc-92" value="&lt;font&gt;&lt;b&gt;Q/K/V&lt;/b&gt;&lt;/font&gt;" style="text;html=1;align=center;verticalAlign=middle;resizable=0;points=[];autosize=1;strokeColor=none;fillColor=none;strokeWidth=1;fontSize=28;" parent="1" vertex="1">
          <mxGeometry x="190" y="95" width="100" height="50" as="geometry" />
        </mxCell>
        <mxCell id="QxQH1etCJ_Zwl-zsI5nc-93" value="&lt;b&gt;Q/K/V&lt;/b&gt;" style="text;html=1;align=center;verticalAlign=middle;resizable=0;points=[];autosize=1;strokeColor=none;fillColor=none;strokeWidth=1;fontSize=28;" parent="1" vertex="1">
          <mxGeometry x="580" y="95" width="100" height="50" as="geometry" />
        </mxCell>
        <mxCell id="QxQH1etCJ_Zwl-zsI5nc-94" value="" style="shape=table;startSize=0;container=1;collapsible=0;childLayout=tableLayout;fontSize=16;fillColor=#d5e8d4;strokeColor=#82b366;shadow=0;rounded=0;" parent="1" vertex="1">
          <mxGeometry x="170" y="-90" width="120" height="120" as="geometry" />
        </mxCell>
        <mxCell id="QxQH1etCJ_Zwl-zsI5nc-95" value="" style="shape=tableRow;horizontal=0;startSize=0;swimlaneHead=0;swimlaneBody=0;strokeColor=#82b366;top=0;left=0;bottom=0;right=0;collapsible=0;dropTarget=0;fillColor=#d5e8d4;points=[[0,0.5],[1,0.5]];portConstraint=eastwest;fontSize=16;shadow=0;sketch=1;curveFitting=1;jiggle=2;" parent="QxQH1etCJ_Zwl-zsI5nc-94" vertex="1">
          <mxGeometry width="120" height="40" as="geometry" />
        </mxCell>
        <mxCell id="QxQH1etCJ_Zwl-zsI5nc-96" value="" style="shape=partialRectangle;html=1;whiteSpace=wrap;connectable=0;strokeColor=#82b366;overflow=hidden;fillColor=#d5e8d4;top=0;left=0;bottom=0;right=0;pointerEvents=1;fontSize=16;shadow=0;sketch=1;curveFitting=1;jiggle=2;" parent="QxQH1etCJ_Zwl-zsI5nc-95" vertex="1">
          <mxGeometry width="60" height="40" as="geometry">
            <mxRectangle width="60" height="40" as="alternateBounds" />
          </mxGeometry>
        </mxCell>
        <mxCell id="QxQH1etCJ_Zwl-zsI5nc-97" value="" style="shape=partialRectangle;html=1;whiteSpace=wrap;connectable=0;strokeColor=#82b366;overflow=hidden;fillColor=#d5e8d4;top=0;left=0;bottom=0;right=0;pointerEvents=1;fontSize=16;shadow=0;sketch=1;curveFitting=1;jiggle=2;" parent="QxQH1etCJ_Zwl-zsI5nc-95" vertex="1">
          <mxGeometry x="60" width="60" height="40" as="geometry">
            <mxRectangle width="60" height="40" as="alternateBounds" />
          </mxGeometry>
        </mxCell>
        <mxCell id="QxQH1etCJ_Zwl-zsI5nc-100" value="" style="shape=tableRow;horizontal=0;startSize=0;swimlaneHead=0;swimlaneBody=0;strokeColor=#82b366;top=0;left=0;bottom=0;right=0;collapsible=0;dropTarget=0;fillColor=#d5e8d4;points=[[0,0.5],[1,0.5]];portConstraint=eastwest;fontSize=16;shadow=0;sketch=1;curveFitting=1;jiggle=2;" parent="QxQH1etCJ_Zwl-zsI5nc-94" vertex="1">
          <mxGeometry y="40" width="120" height="40" as="geometry" />
        </mxCell>
        <mxCell id="QxQH1etCJ_Zwl-zsI5nc-101" value="" style="shape=partialRectangle;html=1;whiteSpace=wrap;connectable=0;strokeColor=#82b366;overflow=hidden;fillColor=#d5e8d4;top=0;left=0;bottom=0;right=0;pointerEvents=1;fontSize=16;shadow=0;sketch=1;curveFitting=1;jiggle=2;" parent="QxQH1etCJ_Zwl-zsI5nc-100" vertex="1">
          <mxGeometry width="60" height="40" as="geometry">
            <mxRectangle width="60" height="40" as="alternateBounds" />
          </mxGeometry>
        </mxCell>
        <mxCell id="QxQH1etCJ_Zwl-zsI5nc-102" value="" style="shape=partialRectangle;html=1;whiteSpace=wrap;connectable=0;strokeColor=#82b366;overflow=hidden;fillColor=#d5e8d4;top=0;left=0;bottom=0;right=0;pointerEvents=1;fontSize=16;shadow=0;sketch=1;curveFitting=1;jiggle=2;" parent="QxQH1etCJ_Zwl-zsI5nc-100" vertex="1">
          <mxGeometry x="60" width="60" height="40" as="geometry">
            <mxRectangle width="60" height="40" as="alternateBounds" />
          </mxGeometry>
        </mxCell>
        <mxCell id="QxQH1etCJ_Zwl-zsI5nc-105" value="" style="shape=tableRow;horizontal=0;startSize=0;swimlaneHead=0;swimlaneBody=0;strokeColor=#82b366;top=0;left=0;bottom=0;right=0;collapsible=0;dropTarget=0;fillColor=#d5e8d4;points=[[0,0.5],[1,0.5]];portConstraint=eastwest;fontSize=16;shadow=0;sketch=1;curveFitting=1;jiggle=2;" parent="QxQH1etCJ_Zwl-zsI5nc-94" vertex="1">
          <mxGeometry y="80" width="120" height="40" as="geometry" />
        </mxCell>
        <mxCell id="QxQH1etCJ_Zwl-zsI5nc-106" value="" style="shape=partialRectangle;html=1;whiteSpace=wrap;connectable=0;strokeColor=#82b366;overflow=hidden;fillColor=#d5e8d4;top=0;left=0;bottom=0;right=0;pointerEvents=1;fontSize=16;shadow=0;sketch=1;curveFitting=1;jiggle=2;" parent="QxQH1etCJ_Zwl-zsI5nc-105" vertex="1">
          <mxGeometry width="60" height="40" as="geometry">
            <mxRectangle width="60" height="40" as="alternateBounds" />
          </mxGeometry>
        </mxCell>
        <mxCell id="QxQH1etCJ_Zwl-zsI5nc-107" value="" style="shape=partialRectangle;html=1;whiteSpace=wrap;connectable=0;strokeColor=#82b366;overflow=hidden;fillColor=#d5e8d4;top=0;left=0;bottom=0;right=0;pointerEvents=1;fontSize=16;shadow=0;sketch=1;curveFitting=1;jiggle=2;" parent="QxQH1etCJ_Zwl-zsI5nc-105" vertex="1">
          <mxGeometry x="60" width="60" height="40" as="geometry">
            <mxRectangle width="60" height="40" as="alternateBounds" />
          </mxGeometry>
        </mxCell>
        <mxCell id="QxQH1etCJ_Zwl-zsI5nc-110" value="" style="shape=table;startSize=0;container=1;collapsible=0;childLayout=tableLayout;fontSize=16;fillColor=#d5e8d4;strokeColor=#82b366;shadow=0;rounded=0;" parent="1" vertex="1">
          <mxGeometry x="550" y="-90" width="120" height="120" as="geometry" />
        </mxCell>
        <mxCell id="QxQH1etCJ_Zwl-zsI5nc-111" value="" style="shape=tableRow;horizontal=0;startSize=0;swimlaneHead=0;swimlaneBody=0;strokeColor=#82b366;top=0;left=0;bottom=0;right=0;collapsible=0;dropTarget=0;fillColor=#d5e8d4;points=[[0,0.5],[1,0.5]];portConstraint=eastwest;fontSize=16;shadow=0;sketch=1;curveFitting=1;jiggle=2;" parent="QxQH1etCJ_Zwl-zsI5nc-110" vertex="1">
          <mxGeometry width="120" height="40" as="geometry" />
        </mxCell>
        <mxCell id="QxQH1etCJ_Zwl-zsI5nc-112" value="" style="shape=partialRectangle;html=1;whiteSpace=wrap;connectable=0;strokeColor=#82b366;overflow=hidden;fillColor=#d5e8d4;top=0;left=0;bottom=0;right=0;pointerEvents=1;fontSize=16;shadow=0;sketch=1;curveFitting=1;jiggle=2;" parent="QxQH1etCJ_Zwl-zsI5nc-111" vertex="1">
          <mxGeometry width="60" height="40" as="geometry">
            <mxRectangle width="60" height="40" as="alternateBounds" />
          </mxGeometry>
        </mxCell>
        <mxCell id="QxQH1etCJ_Zwl-zsI5nc-113" value="" style="shape=partialRectangle;html=1;whiteSpace=wrap;connectable=0;strokeColor=#82b366;overflow=hidden;fillColor=#d5e8d4;top=0;left=0;bottom=0;right=0;pointerEvents=1;fontSize=16;shadow=0;sketch=1;curveFitting=1;jiggle=2;" parent="QxQH1etCJ_Zwl-zsI5nc-111" vertex="1">
          <mxGeometry x="60" width="60" height="40" as="geometry">
            <mxRectangle width="60" height="40" as="alternateBounds" />
          </mxGeometry>
        </mxCell>
        <mxCell id="QxQH1etCJ_Zwl-zsI5nc-116" value="" style="shape=tableRow;horizontal=0;startSize=0;swimlaneHead=0;swimlaneBody=0;strokeColor=#82b366;top=0;left=0;bottom=0;right=0;collapsible=0;dropTarget=0;fillColor=#d5e8d4;points=[[0,0.5],[1,0.5]];portConstraint=eastwest;fontSize=16;shadow=0;sketch=1;curveFitting=1;jiggle=2;" parent="QxQH1etCJ_Zwl-zsI5nc-110" vertex="1">
          <mxGeometry y="40" width="120" height="40" as="geometry" />
        </mxCell>
        <mxCell id="QxQH1etCJ_Zwl-zsI5nc-117" value="" style="shape=partialRectangle;html=1;whiteSpace=wrap;connectable=0;strokeColor=#82b366;overflow=hidden;fillColor=#d5e8d4;top=0;left=0;bottom=0;right=0;pointerEvents=1;fontSize=16;shadow=0;sketch=1;curveFitting=1;jiggle=2;" parent="QxQH1etCJ_Zwl-zsI5nc-116" vertex="1">
          <mxGeometry width="60" height="40" as="geometry">
            <mxRectangle width="60" height="40" as="alternateBounds" />
          </mxGeometry>
        </mxCell>
        <mxCell id="QxQH1etCJ_Zwl-zsI5nc-118" value="" style="shape=partialRectangle;html=1;whiteSpace=wrap;connectable=0;strokeColor=#82b366;overflow=hidden;fillColor=#d5e8d4;top=0;left=0;bottom=0;right=0;pointerEvents=1;fontSize=16;shadow=0;sketch=1;curveFitting=1;jiggle=2;" parent="QxQH1etCJ_Zwl-zsI5nc-116" vertex="1">
          <mxGeometry x="60" width="60" height="40" as="geometry">
            <mxRectangle width="60" height="40" as="alternateBounds" />
          </mxGeometry>
        </mxCell>
        <mxCell id="QxQH1etCJ_Zwl-zsI5nc-121" value="" style="shape=tableRow;horizontal=0;startSize=0;swimlaneHead=0;swimlaneBody=0;strokeColor=#82b366;top=0;left=0;bottom=0;right=0;collapsible=0;dropTarget=0;fillColor=#d5e8d4;points=[[0,0.5],[1,0.5]];portConstraint=eastwest;fontSize=16;shadow=0;sketch=1;curveFitting=1;jiggle=2;" parent="QxQH1etCJ_Zwl-zsI5nc-110" vertex="1">
          <mxGeometry y="80" width="120" height="40" as="geometry" />
        </mxCell>
        <mxCell id="QxQH1etCJ_Zwl-zsI5nc-122" value="" style="shape=partialRectangle;html=1;whiteSpace=wrap;connectable=0;strokeColor=#82b366;overflow=hidden;fillColor=#d5e8d4;top=0;left=0;bottom=0;right=0;pointerEvents=1;fontSize=16;shadow=0;sketch=1;curveFitting=1;jiggle=2;" parent="QxQH1etCJ_Zwl-zsI5nc-121" vertex="1">
          <mxGeometry width="60" height="40" as="geometry">
            <mxRectangle width="60" height="40" as="alternateBounds" />
          </mxGeometry>
        </mxCell>
        <mxCell id="QxQH1etCJ_Zwl-zsI5nc-123" value="" style="shape=partialRectangle;html=1;whiteSpace=wrap;connectable=0;strokeColor=#82b366;overflow=hidden;fillColor=#d5e8d4;top=0;left=0;bottom=0;right=0;pointerEvents=1;fontSize=16;shadow=0;sketch=1;curveFitting=1;jiggle=2;" parent="QxQH1etCJ_Zwl-zsI5nc-121" vertex="1">
          <mxGeometry x="60" width="60" height="40" as="geometry">
            <mxRectangle width="60" height="40" as="alternateBounds" />
          </mxGeometry>
        </mxCell>
        <mxCell id="QxQH1etCJ_Zwl-zsI5nc-126" value="&lt;font&gt;&lt;b&gt;Z1&lt;/b&gt;&lt;/font&gt;" style="text;html=1;align=center;verticalAlign=middle;resizable=0;points=[];autosize=1;strokeColor=none;fillColor=none;strokeWidth=1;fontSize=28;" parent="1" vertex="1">
          <mxGeometry x="200" y="-155" width="60" height="50" as="geometry" />
        </mxCell>
        <mxCell id="QxQH1etCJ_Zwl-zsI5nc-127" value="" style="shape=curlyBracket;whiteSpace=wrap;html=1;rounded=1;labelPosition=left;verticalLabelPosition=middle;align=right;verticalAlign=middle;rotation=-90;size=0.5;" parent="1" vertex="1">
          <mxGeometry x="220" y="-10" width="20" height="120" as="geometry" />
        </mxCell>
        <mxCell id="QxQH1etCJ_Zwl-zsI5nc-128" value="&lt;span&gt;&lt;b&gt;head_dim&lt;/b&gt;&lt;/span&gt;" style="text;html=1;align=center;verticalAlign=middle;resizable=0;points=[];autosize=1;strokeColor=none;fillColor=none;strokeWidth=1;fontSize=28;" parent="1" vertex="1">
          <mxGeometry x="155" y="55" width="150" height="50" as="geometry" />
        </mxCell>
        <mxCell id="QxQH1etCJ_Zwl-zsI5nc-129" value="" style="shape=curlyBracket;whiteSpace=wrap;html=1;rounded=1;labelPosition=left;verticalLabelPosition=middle;align=right;verticalAlign=middle;" parent="1" vertex="1">
          <mxGeometry x="120" y="-90" width="20" height="120" as="geometry" />
        </mxCell>
        <mxCell id="QxQH1etCJ_Zwl-zsI5nc-130" value="&lt;font&gt;&lt;b&gt;sequence_lenth&lt;/b&gt;&lt;/font&gt;" style="text;html=1;align=center;verticalAlign=middle;resizable=0;points=[];autosize=1;strokeColor=none;fillColor=none;strokeWidth=1;fontSize=28;" parent="1" vertex="1">
          <mxGeometry x="-90" y="-55" width="240" height="50" as="geometry" />
        </mxCell>
        <mxCell id="QxQH1etCJ_Zwl-zsI5nc-133" value="&lt;font&gt;&lt;b&gt;Z1&lt;/b&gt;&lt;/font&gt;" style="text;html=1;align=center;verticalAlign=middle;resizable=0;points=[];autosize=1;strokeColor=none;fillColor=none;strokeWidth=1;fontSize=28;" parent="1" vertex="1">
          <mxGeometry x="580" y="-155" width="60" height="50" as="geometry" />
        </mxCell>
        <mxCell id="QxQH1etCJ_Zwl-zsI5nc-137" value="" style="shape=flexArrow;endArrow=classic;html=1;rounded=0;" parent="1" edge="1">
          <mxGeometry width="50" height="50" relative="1" as="geometry">
            <mxPoint x="399.5" y="-80" as="sourcePoint" />
            <mxPoint x="399.5" y="-150" as="targetPoint" />
          </mxGeometry>
        </mxCell>
        <mxCell id="QxQH1etCJ_Zwl-zsI5nc-138" value="&lt;font&gt;&lt;b&gt;concat&lt;/b&gt;&lt;/font&gt;" style="text;html=1;align=center;verticalAlign=middle;resizable=0;points=[];autosize=1;strokeColor=none;fillColor=none;strokeWidth=1;fontSize=28;" parent="1" vertex="1">
          <mxGeometry x="410" y="-140" width="110" height="50" as="geometry" />
        </mxCell>
        <mxCell id="QxQH1etCJ_Zwl-zsI5nc-139" value="" style="shape=table;startSize=0;container=1;collapsible=0;childLayout=tableLayout;fontSize=16;fillColor=#d5e8d4;strokeColor=#82b366;shadow=0;rounded=0;" parent="1" vertex="1">
          <mxGeometry x="280" y="-280" width="240" height="120" as="geometry" />
        </mxCell>
        <mxCell id="QxQH1etCJ_Zwl-zsI5nc-140" value="" style="shape=tableRow;horizontal=0;startSize=0;swimlaneHead=0;swimlaneBody=0;strokeColor=#82b366;top=0;left=0;bottom=0;right=0;collapsible=0;dropTarget=0;fillColor=#d5e8d4;points=[[0,0.5],[1,0.5]];portConstraint=eastwest;fontSize=16;shadow=0;sketch=1;curveFitting=1;jiggle=2;" parent="QxQH1etCJ_Zwl-zsI5nc-139" vertex="1">
          <mxGeometry width="240" height="40" as="geometry" />
        </mxCell>
        <mxCell id="QxQH1etCJ_Zwl-zsI5nc-141" value="" style="shape=partialRectangle;html=1;whiteSpace=wrap;connectable=0;strokeColor=#82b366;overflow=hidden;fillColor=#d5e8d4;top=0;left=0;bottom=0;right=0;pointerEvents=1;fontSize=16;shadow=0;sketch=1;curveFitting=1;jiggle=2;" parent="QxQH1etCJ_Zwl-zsI5nc-140" vertex="1">
          <mxGeometry width="60" height="40" as="geometry">
            <mxRectangle width="60" height="40" as="alternateBounds" />
          </mxGeometry>
        </mxCell>
        <mxCell id="QxQH1etCJ_Zwl-zsI5nc-142" value="" style="shape=partialRectangle;html=1;whiteSpace=wrap;connectable=0;strokeColor=#82b366;overflow=hidden;fillColor=#d5e8d4;top=0;left=0;bottom=0;right=0;pointerEvents=1;fontSize=16;shadow=0;sketch=1;curveFitting=1;jiggle=2;" parent="QxQH1etCJ_Zwl-zsI5nc-140" vertex="1">
          <mxGeometry x="60" width="60" height="40" as="geometry">
            <mxRectangle width="60" height="40" as="alternateBounds" />
          </mxGeometry>
        </mxCell>
        <mxCell id="QxQH1etCJ_Zwl-zsI5nc-149" style="shape=partialRectangle;html=1;whiteSpace=wrap;connectable=0;strokeColor=#82b366;overflow=hidden;fillColor=#d5e8d4;top=0;left=0;bottom=0;right=0;pointerEvents=1;fontSize=16;shadow=0;sketch=1;curveFitting=1;jiggle=2;" parent="QxQH1etCJ_Zwl-zsI5nc-140" vertex="1">
          <mxGeometry x="120" width="60" height="40" as="geometry">
            <mxRectangle width="60" height="40" as="alternateBounds" />
          </mxGeometry>
        </mxCell>
        <mxCell id="QxQH1etCJ_Zwl-zsI5nc-152" style="shape=partialRectangle;html=1;whiteSpace=wrap;connectable=0;strokeColor=#82b366;overflow=hidden;fillColor=#d5e8d4;top=0;left=0;bottom=0;right=0;pointerEvents=1;fontSize=16;shadow=0;sketch=1;curveFitting=1;jiggle=2;" parent="QxQH1etCJ_Zwl-zsI5nc-140" vertex="1">
          <mxGeometry x="180" width="60" height="40" as="geometry">
            <mxRectangle width="60" height="40" as="alternateBounds" />
          </mxGeometry>
        </mxCell>
        <mxCell id="QxQH1etCJ_Zwl-zsI5nc-143" value="" style="shape=tableRow;horizontal=0;startSize=0;swimlaneHead=0;swimlaneBody=0;strokeColor=#82b366;top=0;left=0;bottom=0;right=0;collapsible=0;dropTarget=0;fillColor=#d5e8d4;points=[[0,0.5],[1,0.5]];portConstraint=eastwest;fontSize=16;shadow=0;sketch=1;curveFitting=1;jiggle=2;" parent="QxQH1etCJ_Zwl-zsI5nc-139" vertex="1">
          <mxGeometry y="40" width="240" height="40" as="geometry" />
        </mxCell>
        <mxCell id="QxQH1etCJ_Zwl-zsI5nc-144" value="" style="shape=partialRectangle;html=1;whiteSpace=wrap;connectable=0;strokeColor=#82b366;overflow=hidden;fillColor=#d5e8d4;top=0;left=0;bottom=0;right=0;pointerEvents=1;fontSize=16;shadow=0;sketch=1;curveFitting=1;jiggle=2;" parent="QxQH1etCJ_Zwl-zsI5nc-143" vertex="1">
          <mxGeometry width="60" height="40" as="geometry">
            <mxRectangle width="60" height="40" as="alternateBounds" />
          </mxGeometry>
        </mxCell>
        <mxCell id="QxQH1etCJ_Zwl-zsI5nc-145" value="" style="shape=partialRectangle;html=1;whiteSpace=wrap;connectable=0;strokeColor=#82b366;overflow=hidden;fillColor=#d5e8d4;top=0;left=0;bottom=0;right=0;pointerEvents=1;fontSize=16;shadow=0;sketch=1;curveFitting=1;jiggle=2;" parent="QxQH1etCJ_Zwl-zsI5nc-143" vertex="1">
          <mxGeometry x="60" width="60" height="40" as="geometry">
            <mxRectangle width="60" height="40" as="alternateBounds" />
          </mxGeometry>
        </mxCell>
        <mxCell id="QxQH1etCJ_Zwl-zsI5nc-150" style="shape=partialRectangle;html=1;whiteSpace=wrap;connectable=0;strokeColor=#82b366;overflow=hidden;fillColor=#d5e8d4;top=0;left=0;bottom=0;right=0;pointerEvents=1;fontSize=16;shadow=0;sketch=1;curveFitting=1;jiggle=2;" parent="QxQH1etCJ_Zwl-zsI5nc-143" vertex="1">
          <mxGeometry x="120" width="60" height="40" as="geometry">
            <mxRectangle width="60" height="40" as="alternateBounds" />
          </mxGeometry>
        </mxCell>
        <mxCell id="QxQH1etCJ_Zwl-zsI5nc-153" style="shape=partialRectangle;html=1;whiteSpace=wrap;connectable=0;strokeColor=#82b366;overflow=hidden;fillColor=#d5e8d4;top=0;left=0;bottom=0;right=0;pointerEvents=1;fontSize=16;shadow=0;sketch=1;curveFitting=1;jiggle=2;" parent="QxQH1etCJ_Zwl-zsI5nc-143" vertex="1">
          <mxGeometry x="180" width="60" height="40" as="geometry">
            <mxRectangle width="60" height="40" as="alternateBounds" />
          </mxGeometry>
        </mxCell>
        <mxCell id="QxQH1etCJ_Zwl-zsI5nc-146" value="" style="shape=tableRow;horizontal=0;startSize=0;swimlaneHead=0;swimlaneBody=0;strokeColor=#82b366;top=0;left=0;bottom=0;right=0;collapsible=0;dropTarget=0;fillColor=#d5e8d4;points=[[0,0.5],[1,0.5]];portConstraint=eastwest;fontSize=16;shadow=0;sketch=1;curveFitting=1;jiggle=2;" parent="QxQH1etCJ_Zwl-zsI5nc-139" vertex="1">
          <mxGeometry y="80" width="240" height="40" as="geometry" />
        </mxCell>
        <mxCell id="QxQH1etCJ_Zwl-zsI5nc-147" value="" style="shape=partialRectangle;html=1;whiteSpace=wrap;connectable=0;strokeColor=#82b366;overflow=hidden;fillColor=#d5e8d4;top=0;left=0;bottom=0;right=0;pointerEvents=1;fontSize=16;shadow=0;sketch=1;curveFitting=1;jiggle=2;" parent="QxQH1etCJ_Zwl-zsI5nc-146" vertex="1">
          <mxGeometry width="60" height="40" as="geometry">
            <mxRectangle width="60" height="40" as="alternateBounds" />
          </mxGeometry>
        </mxCell>
        <mxCell id="QxQH1etCJ_Zwl-zsI5nc-148" value="" style="shape=partialRectangle;html=1;whiteSpace=wrap;connectable=0;strokeColor=#82b366;overflow=hidden;fillColor=#d5e8d4;top=0;left=0;bottom=0;right=0;pointerEvents=1;fontSize=16;shadow=0;sketch=1;curveFitting=1;jiggle=2;" parent="QxQH1etCJ_Zwl-zsI5nc-146" vertex="1">
          <mxGeometry x="60" width="60" height="40" as="geometry">
            <mxRectangle width="60" height="40" as="alternateBounds" />
          </mxGeometry>
        </mxCell>
        <mxCell id="QxQH1etCJ_Zwl-zsI5nc-151" style="shape=partialRectangle;html=1;whiteSpace=wrap;connectable=0;strokeColor=#82b366;overflow=hidden;fillColor=#d5e8d4;top=0;left=0;bottom=0;right=0;pointerEvents=1;fontSize=16;shadow=0;sketch=1;curveFitting=1;jiggle=2;" parent="QxQH1etCJ_Zwl-zsI5nc-146" vertex="1">
          <mxGeometry x="120" width="60" height="40" as="geometry">
            <mxRectangle width="60" height="40" as="alternateBounds" />
          </mxGeometry>
        </mxCell>
        <mxCell id="QxQH1etCJ_Zwl-zsI5nc-154" style="shape=partialRectangle;html=1;whiteSpace=wrap;connectable=0;strokeColor=#82b366;overflow=hidden;fillColor=#d5e8d4;top=0;left=0;bottom=0;right=0;pointerEvents=1;fontSize=16;shadow=0;sketch=1;curveFitting=1;jiggle=2;" parent="QxQH1etCJ_Zwl-zsI5nc-146" vertex="1">
          <mxGeometry x="180" width="60" height="40" as="geometry">
            <mxRectangle width="60" height="40" as="alternateBounds" />
          </mxGeometry>
        </mxCell>
        <mxCell id="QxQH1etCJ_Zwl-zsI5nc-155" value="&lt;font&gt;&lt;b&gt;Z&lt;/b&gt;&lt;/font&gt;" style="text;html=1;align=center;verticalAlign=middle;resizable=0;points=[];autosize=1;strokeColor=none;fillColor=none;strokeWidth=1;fontSize=28;" parent="1" vertex="1">
          <mxGeometry x="380" y="-335" width="40" height="50" as="geometry" />
        </mxCell>
        <mxCell id="QxQH1etCJ_Zwl-zsI5nc-156" value="" style="shape=table;startSize=0;container=1;collapsible=0;childLayout=tableLayout;fontSize=16;fillColor=#cdeb8b;strokeColor=#36393d;shadow=0;rounded=0;" parent="1" vertex="1">
          <mxGeometry x="670" y="-300" width="240" height="160" as="geometry" />
        </mxCell>
        <mxCell id="QxQH1etCJ_Zwl-zsI5nc-157" value="" style="shape=tableRow;horizontal=0;startSize=0;swimlaneHead=0;swimlaneBody=0;strokeColor=#82b366;top=0;left=0;bottom=0;right=0;collapsible=0;dropTarget=0;fillColor=#d5e8d4;points=[[0,0.5],[1,0.5]];portConstraint=eastwest;fontSize=16;shadow=0;sketch=1;curveFitting=1;jiggle=2;" parent="QxQH1etCJ_Zwl-zsI5nc-156" vertex="1">
          <mxGeometry width="240" height="40" as="geometry" />
        </mxCell>
        <mxCell id="QxQH1etCJ_Zwl-zsI5nc-158" value="" style="shape=partialRectangle;html=1;whiteSpace=wrap;connectable=0;strokeColor=#82b366;overflow=hidden;fillColor=#d5e8d4;top=0;left=0;bottom=0;right=0;pointerEvents=1;fontSize=16;shadow=0;sketch=1;curveFitting=1;jiggle=2;" parent="QxQH1etCJ_Zwl-zsI5nc-157" vertex="1">
          <mxGeometry width="60" height="40" as="geometry">
            <mxRectangle width="60" height="40" as="alternateBounds" />
          </mxGeometry>
        </mxCell>
        <mxCell id="QxQH1etCJ_Zwl-zsI5nc-159" value="" style="shape=partialRectangle;html=1;whiteSpace=wrap;connectable=0;strokeColor=#82b366;overflow=hidden;fillColor=#d5e8d4;top=0;left=0;bottom=0;right=0;pointerEvents=1;fontSize=16;shadow=0;sketch=1;curveFitting=1;jiggle=2;" parent="QxQH1etCJ_Zwl-zsI5nc-157" vertex="1">
          <mxGeometry x="60" width="60" height="40" as="geometry">
            <mxRectangle width="60" height="40" as="alternateBounds" />
          </mxGeometry>
        </mxCell>
        <mxCell id="QxQH1etCJ_Zwl-zsI5nc-160" style="shape=partialRectangle;html=1;whiteSpace=wrap;connectable=0;strokeColor=#82b366;overflow=hidden;fillColor=#d5e8d4;top=0;left=0;bottom=0;right=0;pointerEvents=1;fontSize=16;shadow=0;sketch=1;curveFitting=1;jiggle=2;" parent="QxQH1etCJ_Zwl-zsI5nc-157" vertex="1">
          <mxGeometry x="120" width="60" height="40" as="geometry">
            <mxRectangle width="60" height="40" as="alternateBounds" />
          </mxGeometry>
        </mxCell>
        <mxCell id="QxQH1etCJ_Zwl-zsI5nc-161" style="shape=partialRectangle;html=1;whiteSpace=wrap;connectable=0;strokeColor=#82b366;overflow=hidden;fillColor=#d5e8d4;top=0;left=0;bottom=0;right=0;pointerEvents=1;fontSize=16;shadow=0;sketch=1;curveFitting=1;jiggle=2;" parent="QxQH1etCJ_Zwl-zsI5nc-157" vertex="1">
          <mxGeometry x="180" width="60" height="40" as="geometry">
            <mxRectangle width="60" height="40" as="alternateBounds" />
          </mxGeometry>
        </mxCell>
        <mxCell id="QxQH1etCJ_Zwl-zsI5nc-162" value="" style="shape=tableRow;horizontal=0;startSize=0;swimlaneHead=0;swimlaneBody=0;strokeColor=#82b366;top=0;left=0;bottom=0;right=0;collapsible=0;dropTarget=0;fillColor=#d5e8d4;points=[[0,0.5],[1,0.5]];portConstraint=eastwest;fontSize=16;shadow=0;sketch=1;curveFitting=1;jiggle=2;" parent="QxQH1etCJ_Zwl-zsI5nc-156" vertex="1">
          <mxGeometry y="40" width="240" height="40" as="geometry" />
        </mxCell>
        <mxCell id="QxQH1etCJ_Zwl-zsI5nc-163" value="" style="shape=partialRectangle;html=1;whiteSpace=wrap;connectable=0;strokeColor=#82b366;overflow=hidden;fillColor=#d5e8d4;top=0;left=0;bottom=0;right=0;pointerEvents=1;fontSize=16;shadow=0;sketch=1;curveFitting=1;jiggle=2;" parent="QxQH1etCJ_Zwl-zsI5nc-162" vertex="1">
          <mxGeometry width="60" height="40" as="geometry">
            <mxRectangle width="60" height="40" as="alternateBounds" />
          </mxGeometry>
        </mxCell>
        <mxCell id="QxQH1etCJ_Zwl-zsI5nc-164" value="" style="shape=partialRectangle;html=1;whiteSpace=wrap;connectable=0;strokeColor=#82b366;overflow=hidden;fillColor=#d5e8d4;top=0;left=0;bottom=0;right=0;pointerEvents=1;fontSize=16;shadow=0;sketch=1;curveFitting=1;jiggle=2;" parent="QxQH1etCJ_Zwl-zsI5nc-162" vertex="1">
          <mxGeometry x="60" width="60" height="40" as="geometry">
            <mxRectangle width="60" height="40" as="alternateBounds" />
          </mxGeometry>
        </mxCell>
        <mxCell id="QxQH1etCJ_Zwl-zsI5nc-165" style="shape=partialRectangle;html=1;whiteSpace=wrap;connectable=0;strokeColor=#82b366;overflow=hidden;fillColor=#d5e8d4;top=0;left=0;bottom=0;right=0;pointerEvents=1;fontSize=16;shadow=0;sketch=1;curveFitting=1;jiggle=2;" parent="QxQH1etCJ_Zwl-zsI5nc-162" vertex="1">
          <mxGeometry x="120" width="60" height="40" as="geometry">
            <mxRectangle width="60" height="40" as="alternateBounds" />
          </mxGeometry>
        </mxCell>
        <mxCell id="QxQH1etCJ_Zwl-zsI5nc-166" style="shape=partialRectangle;html=1;whiteSpace=wrap;connectable=0;strokeColor=#82b366;overflow=hidden;fillColor=#d5e8d4;top=0;left=0;bottom=0;right=0;pointerEvents=1;fontSize=16;shadow=0;sketch=1;curveFitting=1;jiggle=2;" parent="QxQH1etCJ_Zwl-zsI5nc-162" vertex="1">
          <mxGeometry x="180" width="60" height="40" as="geometry">
            <mxRectangle width="60" height="40" as="alternateBounds" />
          </mxGeometry>
        </mxCell>
        <mxCell id="QxQH1etCJ_Zwl-zsI5nc-167" value="" style="shape=tableRow;horizontal=0;startSize=0;swimlaneHead=0;swimlaneBody=0;strokeColor=#82b366;top=0;left=0;bottom=0;right=0;collapsible=0;dropTarget=0;fillColor=#d5e8d4;points=[[0,0.5],[1,0.5]];portConstraint=eastwest;fontSize=16;shadow=0;sketch=1;curveFitting=1;jiggle=2;" parent="QxQH1etCJ_Zwl-zsI5nc-156" vertex="1">
          <mxGeometry y="80" width="240" height="40" as="geometry" />
        </mxCell>
        <mxCell id="QxQH1etCJ_Zwl-zsI5nc-168" value="" style="shape=partialRectangle;html=1;whiteSpace=wrap;connectable=0;strokeColor=#82b366;overflow=hidden;fillColor=#d5e8d4;top=0;left=0;bottom=0;right=0;pointerEvents=1;fontSize=16;shadow=0;sketch=1;curveFitting=1;jiggle=2;" parent="QxQH1etCJ_Zwl-zsI5nc-167" vertex="1">
          <mxGeometry width="60" height="40" as="geometry">
            <mxRectangle width="60" height="40" as="alternateBounds" />
          </mxGeometry>
        </mxCell>
        <mxCell id="QxQH1etCJ_Zwl-zsI5nc-169" value="" style="shape=partialRectangle;html=1;whiteSpace=wrap;connectable=0;strokeColor=#82b366;overflow=hidden;fillColor=#d5e8d4;top=0;left=0;bottom=0;right=0;pointerEvents=1;fontSize=16;shadow=0;sketch=1;curveFitting=1;jiggle=2;" parent="QxQH1etCJ_Zwl-zsI5nc-167" vertex="1">
          <mxGeometry x="60" width="60" height="40" as="geometry">
            <mxRectangle width="60" height="40" as="alternateBounds" />
          </mxGeometry>
        </mxCell>
        <mxCell id="QxQH1etCJ_Zwl-zsI5nc-170" style="shape=partialRectangle;html=1;whiteSpace=wrap;connectable=0;strokeColor=#82b366;overflow=hidden;fillColor=#d5e8d4;top=0;left=0;bottom=0;right=0;pointerEvents=1;fontSize=16;shadow=0;sketch=1;curveFitting=1;jiggle=2;" parent="QxQH1etCJ_Zwl-zsI5nc-167" vertex="1">
          <mxGeometry x="120" width="60" height="40" as="geometry">
            <mxRectangle width="60" height="40" as="alternateBounds" />
          </mxGeometry>
        </mxCell>
        <mxCell id="QxQH1etCJ_Zwl-zsI5nc-171" style="shape=partialRectangle;html=1;whiteSpace=wrap;connectable=0;strokeColor=#82b366;overflow=hidden;fillColor=#d5e8d4;top=0;left=0;bottom=0;right=0;pointerEvents=1;fontSize=16;shadow=0;sketch=1;curveFitting=1;jiggle=2;" parent="QxQH1etCJ_Zwl-zsI5nc-167" vertex="1">
          <mxGeometry x="180" width="60" height="40" as="geometry">
            <mxRectangle width="60" height="40" as="alternateBounds" />
          </mxGeometry>
        </mxCell>
        <mxCell id="QxQH1etCJ_Zwl-zsI5nc-172" style="shape=tableRow;horizontal=0;startSize=0;swimlaneHead=0;swimlaneBody=0;strokeColor=#82b366;top=0;left=0;bottom=0;right=0;collapsible=0;dropTarget=0;fillColor=#d5e8d4;points=[[0,0.5],[1,0.5]];portConstraint=eastwest;fontSize=16;shadow=0;sketch=1;curveFitting=1;jiggle=2;" parent="QxQH1etCJ_Zwl-zsI5nc-156" vertex="1">
          <mxGeometry y="120" width="240" height="40" as="geometry" />
        </mxCell>
        <mxCell id="QxQH1etCJ_Zwl-zsI5nc-173" style="shape=partialRectangle;html=1;whiteSpace=wrap;connectable=0;strokeColor=#82b366;overflow=hidden;fillColor=#d5e8d4;top=0;left=0;bottom=0;right=0;pointerEvents=1;fontSize=16;shadow=0;sketch=1;curveFitting=1;jiggle=2;" parent="QxQH1etCJ_Zwl-zsI5nc-172" vertex="1">
          <mxGeometry width="60" height="40" as="geometry">
            <mxRectangle width="60" height="40" as="alternateBounds" />
          </mxGeometry>
        </mxCell>
        <mxCell id="QxQH1etCJ_Zwl-zsI5nc-174" style="shape=partialRectangle;html=1;whiteSpace=wrap;connectable=0;strokeColor=#82b366;overflow=hidden;fillColor=#d5e8d4;top=0;left=0;bottom=0;right=0;pointerEvents=1;fontSize=16;shadow=0;sketch=1;curveFitting=1;jiggle=2;" parent="QxQH1etCJ_Zwl-zsI5nc-172" vertex="1">
          <mxGeometry x="60" width="60" height="40" as="geometry">
            <mxRectangle width="60" height="40" as="alternateBounds" />
          </mxGeometry>
        </mxCell>
        <mxCell id="QxQH1etCJ_Zwl-zsI5nc-175" style="shape=partialRectangle;html=1;whiteSpace=wrap;connectable=0;strokeColor=#82b366;overflow=hidden;fillColor=#d5e8d4;top=0;left=0;bottom=0;right=0;pointerEvents=1;fontSize=16;shadow=0;sketch=1;curveFitting=1;jiggle=2;" parent="QxQH1etCJ_Zwl-zsI5nc-172" vertex="1">
          <mxGeometry x="120" width="60" height="40" as="geometry">
            <mxRectangle width="60" height="40" as="alternateBounds" />
          </mxGeometry>
        </mxCell>
        <mxCell id="QxQH1etCJ_Zwl-zsI5nc-176" style="shape=partialRectangle;html=1;whiteSpace=wrap;connectable=0;strokeColor=#82b366;overflow=hidden;fillColor=#d5e8d4;top=0;left=0;bottom=0;right=0;pointerEvents=1;fontSize=16;shadow=0;sketch=1;curveFitting=1;jiggle=2;" parent="QxQH1etCJ_Zwl-zsI5nc-172" vertex="1">
          <mxGeometry x="180" width="60" height="40" as="geometry">
            <mxRectangle width="60" height="40" as="alternateBounds" />
          </mxGeometry>
        </mxCell>
        <mxCell id="QxQH1etCJ_Zwl-zsI5nc-177" value="&lt;font&gt;&lt;b&gt;W_O&lt;/b&gt;&lt;/font&gt;" style="text;html=1;align=center;verticalAlign=middle;resizable=0;points=[];autosize=1;strokeColor=none;fillColor=none;strokeWidth=1;fontSize=28;" parent="1" vertex="1">
          <mxGeometry x="745" y="-345" width="90" height="50" as="geometry" />
        </mxCell>
        <mxCell id="QxQH1etCJ_Zwl-zsI5nc-179" value="" style="shape=flexArrow;endArrow=classic;html=1;rounded=0;" parent="1" edge="1">
          <mxGeometry width="50" height="50" relative="1" as="geometry">
            <mxPoint x="590" y="-250" as="sourcePoint" />
            <mxPoint x="590" y="-370" as="targetPoint" />
          </mxGeometry>
        </mxCell>
        <mxCell id="QxQH1etCJ_Zwl-zsI5nc-180" value="" style="shape=cross;whiteSpace=wrap;html=1;rotation=45;strokeColor=none;fillColor=light-dark(#0a0a0a, #ededed);" parent="1" vertex="1">
          <mxGeometry x="600.0042712474619" y="-319.99572875253807" width="40" height="40" as="geometry" />
        </mxCell>
        <mxCell id="QxQH1etCJ_Zwl-zsI5nc-182" value="" style="shape=table;startSize=0;container=1;collapsible=0;childLayout=tableLayout;fontSize=16;fillColor=#ffcccc;strokeColor=#36393d;shadow=0;rounded=0;" parent="1" vertex="1">
          <mxGeometry x="470" y="-500" width="240" height="120" as="geometry" />
        </mxCell>
        <mxCell id="QxQH1etCJ_Zwl-zsI5nc-183" value="" style="shape=tableRow;horizontal=0;startSize=0;swimlaneHead=0;swimlaneBody=0;strokeColor=#82b366;top=0;left=0;bottom=0;right=0;collapsible=0;dropTarget=0;fillColor=#d5e8d4;points=[[0,0.5],[1,0.5]];portConstraint=eastwest;fontSize=16;shadow=0;sketch=1;curveFitting=1;jiggle=2;" parent="QxQH1etCJ_Zwl-zsI5nc-182" vertex="1">
          <mxGeometry width="240" height="40" as="geometry" />
        </mxCell>
        <mxCell id="QxQH1etCJ_Zwl-zsI5nc-184" value="" style="shape=partialRectangle;html=1;whiteSpace=wrap;connectable=0;strokeColor=#82b366;overflow=hidden;fillColor=#d5e8d4;top=0;left=0;bottom=0;right=0;pointerEvents=1;fontSize=16;shadow=0;sketch=1;curveFitting=1;jiggle=2;" parent="QxQH1etCJ_Zwl-zsI5nc-183" vertex="1">
          <mxGeometry width="60" height="40" as="geometry">
            <mxRectangle width="60" height="40" as="alternateBounds" />
          </mxGeometry>
        </mxCell>
        <mxCell id="QxQH1etCJ_Zwl-zsI5nc-185" value="" style="shape=partialRectangle;html=1;whiteSpace=wrap;connectable=0;strokeColor=#82b366;overflow=hidden;fillColor=#d5e8d4;top=0;left=0;bottom=0;right=0;pointerEvents=1;fontSize=16;shadow=0;sketch=1;curveFitting=1;jiggle=2;" parent="QxQH1etCJ_Zwl-zsI5nc-183" vertex="1">
          <mxGeometry x="60" width="60" height="40" as="geometry">
            <mxRectangle width="60" height="40" as="alternateBounds" />
          </mxGeometry>
        </mxCell>
        <mxCell id="QxQH1etCJ_Zwl-zsI5nc-186" style="shape=partialRectangle;html=1;whiteSpace=wrap;connectable=0;strokeColor=#82b366;overflow=hidden;fillColor=#d5e8d4;top=0;left=0;bottom=0;right=0;pointerEvents=1;fontSize=16;shadow=0;sketch=1;curveFitting=1;jiggle=2;" parent="QxQH1etCJ_Zwl-zsI5nc-183" vertex="1">
          <mxGeometry x="120" width="60" height="40" as="geometry">
            <mxRectangle width="60" height="40" as="alternateBounds" />
          </mxGeometry>
        </mxCell>
        <mxCell id="QxQH1etCJ_Zwl-zsI5nc-187" style="shape=partialRectangle;html=1;whiteSpace=wrap;connectable=0;strokeColor=#82b366;overflow=hidden;fillColor=#d5e8d4;top=0;left=0;bottom=0;right=0;pointerEvents=1;fontSize=16;shadow=0;sketch=1;curveFitting=1;jiggle=2;" parent="QxQH1etCJ_Zwl-zsI5nc-183" vertex="1">
          <mxGeometry x="180" width="60" height="40" as="geometry">
            <mxRectangle width="60" height="40" as="alternateBounds" />
          </mxGeometry>
        </mxCell>
        <mxCell id="QxQH1etCJ_Zwl-zsI5nc-188" value="" style="shape=tableRow;horizontal=0;startSize=0;swimlaneHead=0;swimlaneBody=0;strokeColor=#82b366;top=0;left=0;bottom=0;right=0;collapsible=0;dropTarget=0;fillColor=#d5e8d4;points=[[0,0.5],[1,0.5]];portConstraint=eastwest;fontSize=16;shadow=0;sketch=1;curveFitting=1;jiggle=2;" parent="QxQH1etCJ_Zwl-zsI5nc-182" vertex="1">
          <mxGeometry y="40" width="240" height="40" as="geometry" />
        </mxCell>
        <mxCell id="QxQH1etCJ_Zwl-zsI5nc-189" value="" style="shape=partialRectangle;html=1;whiteSpace=wrap;connectable=0;strokeColor=#82b366;overflow=hidden;fillColor=#d5e8d4;top=0;left=0;bottom=0;right=0;pointerEvents=1;fontSize=16;shadow=0;sketch=1;curveFitting=1;jiggle=2;" parent="QxQH1etCJ_Zwl-zsI5nc-188" vertex="1">
          <mxGeometry width="60" height="40" as="geometry">
            <mxRectangle width="60" height="40" as="alternateBounds" />
          </mxGeometry>
        </mxCell>
        <mxCell id="QxQH1etCJ_Zwl-zsI5nc-190" value="" style="shape=partialRectangle;html=1;whiteSpace=wrap;connectable=0;strokeColor=#82b366;overflow=hidden;fillColor=#d5e8d4;top=0;left=0;bottom=0;right=0;pointerEvents=1;fontSize=16;shadow=0;sketch=1;curveFitting=1;jiggle=2;" parent="QxQH1etCJ_Zwl-zsI5nc-188" vertex="1">
          <mxGeometry x="60" width="60" height="40" as="geometry">
            <mxRectangle width="60" height="40" as="alternateBounds" />
          </mxGeometry>
        </mxCell>
        <mxCell id="QxQH1etCJ_Zwl-zsI5nc-191" style="shape=partialRectangle;html=1;whiteSpace=wrap;connectable=0;strokeColor=#82b366;overflow=hidden;fillColor=#d5e8d4;top=0;left=0;bottom=0;right=0;pointerEvents=1;fontSize=16;shadow=0;sketch=1;curveFitting=1;jiggle=2;" parent="QxQH1etCJ_Zwl-zsI5nc-188" vertex="1">
          <mxGeometry x="120" width="60" height="40" as="geometry">
            <mxRectangle width="60" height="40" as="alternateBounds" />
          </mxGeometry>
        </mxCell>
        <mxCell id="QxQH1etCJ_Zwl-zsI5nc-192" style="shape=partialRectangle;html=1;whiteSpace=wrap;connectable=0;strokeColor=#82b366;overflow=hidden;fillColor=#d5e8d4;top=0;left=0;bottom=0;right=0;pointerEvents=1;fontSize=16;shadow=0;sketch=1;curveFitting=1;jiggle=2;" parent="QxQH1etCJ_Zwl-zsI5nc-188" vertex="1">
          <mxGeometry x="180" width="60" height="40" as="geometry">
            <mxRectangle width="60" height="40" as="alternateBounds" />
          </mxGeometry>
        </mxCell>
        <mxCell id="QxQH1etCJ_Zwl-zsI5nc-193" value="" style="shape=tableRow;horizontal=0;startSize=0;swimlaneHead=0;swimlaneBody=0;strokeColor=#82b366;top=0;left=0;bottom=0;right=0;collapsible=0;dropTarget=0;fillColor=#d5e8d4;points=[[0,0.5],[1,0.5]];portConstraint=eastwest;fontSize=16;shadow=0;sketch=1;curveFitting=1;jiggle=2;" parent="QxQH1etCJ_Zwl-zsI5nc-182" vertex="1">
          <mxGeometry y="80" width="240" height="40" as="geometry" />
        </mxCell>
        <mxCell id="QxQH1etCJ_Zwl-zsI5nc-194" value="" style="shape=partialRectangle;html=1;whiteSpace=wrap;connectable=0;strokeColor=#82b366;overflow=hidden;fillColor=#d5e8d4;top=0;left=0;bottom=0;right=0;pointerEvents=1;fontSize=16;shadow=0;sketch=1;curveFitting=1;jiggle=2;" parent="QxQH1etCJ_Zwl-zsI5nc-193" vertex="1">
          <mxGeometry width="60" height="40" as="geometry">
            <mxRectangle width="60" height="40" as="alternateBounds" />
          </mxGeometry>
        </mxCell>
        <mxCell id="QxQH1etCJ_Zwl-zsI5nc-195" value="" style="shape=partialRectangle;html=1;whiteSpace=wrap;connectable=0;strokeColor=#82b366;overflow=hidden;fillColor=#d5e8d4;top=0;left=0;bottom=0;right=0;pointerEvents=1;fontSize=16;shadow=0;sketch=1;curveFitting=1;jiggle=2;" parent="QxQH1etCJ_Zwl-zsI5nc-193" vertex="1">
          <mxGeometry x="60" width="60" height="40" as="geometry">
            <mxRectangle width="60" height="40" as="alternateBounds" />
          </mxGeometry>
        </mxCell>
        <mxCell id="QxQH1etCJ_Zwl-zsI5nc-196" style="shape=partialRectangle;html=1;whiteSpace=wrap;connectable=0;strokeColor=#82b366;overflow=hidden;fillColor=#d5e8d4;top=0;left=0;bottom=0;right=0;pointerEvents=1;fontSize=16;shadow=0;sketch=1;curveFitting=1;jiggle=2;" parent="QxQH1etCJ_Zwl-zsI5nc-193" vertex="1">
          <mxGeometry x="120" width="60" height="40" as="geometry">
            <mxRectangle width="60" height="40" as="alternateBounds" />
          </mxGeometry>
        </mxCell>
        <mxCell id="QxQH1etCJ_Zwl-zsI5nc-197" style="shape=partialRectangle;html=1;whiteSpace=wrap;connectable=0;strokeColor=#82b366;overflow=hidden;fillColor=#d5e8d4;top=0;left=0;bottom=0;right=0;pointerEvents=1;fontSize=16;shadow=0;sketch=1;curveFitting=1;jiggle=2;" parent="QxQH1etCJ_Zwl-zsI5nc-193" vertex="1">
          <mxGeometry x="180" width="60" height="40" as="geometry">
            <mxRectangle width="60" height="40" as="alternateBounds" />
          </mxGeometry>
        </mxCell>
        <mxCell id="QxQH1etCJ_Zwl-zsI5nc-208" value="&lt;div&gt;&lt;font&gt;&lt;b&gt;multi_head_attention_output&lt;/b&gt;&lt;/font&gt;&lt;/div&gt;" style="text;html=1;align=center;verticalAlign=middle;resizable=0;points=[];autosize=1;strokeColor=none;fillColor=none;strokeWidth=1;fontSize=28;" parent="1" vertex="1">
          <mxGeometry x="385" y="-565" width="410" height="50" as="geometry" />
        </mxCell>
      </root>
    </mxGraphModel>
  </diagram>
</mxfile>
